<mxfile host="app.diagrams.net" modified="2024-07-10T15:07:54.958Z" agent="Mozilla/5.0 (Windows NT 10.0; Win64; x64) AppleWebKit/537.36 (KHTML, like Gecko) Chrome/125.0.0.0 Safari/537.36 OPR/111.0.0.0" etag="2bIlIJXCU97ALYe67F_X" version="24.6.4" type="github">
  <diagram name="Page-1" id="dd472eb7-4b8b-5cd9-a60b-b15522922e76">
    <mxGraphModel dx="1380" dy="739" grid="1" gridSize="10" guides="1" tooltips="1" connect="1" arrows="1" fold="1" page="1" pageScale="1" pageWidth="1100" pageHeight="850" background="none" math="0" shadow="0">
      <root>
        <mxCell id="0" />
        <mxCell id="1" parent="0" />
        <mxCell id="inY06BSzbpK9KpL7BebR-9" value="" style="rounded=0;whiteSpace=wrap;html=1;" vertex="1" parent="1">
          <mxGeometry x="200" y="50" width="750" height="630" as="geometry" />
        </mxCell>
        <mxCell id="inY06BSzbpK9KpL7BebR-2" value="WP1" style="ellipse;whiteSpace=wrap;html=1;rounded=0;shadow=0;dashed=0;comic=0;fontFamily=Verdana;fontSize=22;fontColor=#333333;fillColor=#C3E0C1;strokeColor=#666666;labelPosition=right;verticalLabelPosition=middle;align=left;verticalAlign=middle;labelBackgroundColor=none;fontStyle=1" vertex="1" parent="1">
          <mxGeometry x="210" y="60" width="660" height="610" as="geometry" />
        </mxCell>
        <mxCell id="374e34682ed331ee-1" value="WP6" style="ellipse;whiteSpace=wrap;html=1;rounded=0;shadow=0;dashed=0;comic=0;fontFamily=Verdana;fontSize=22;fillColor=#dae8fc;strokeColor=#6c8ebf;labelBackgroundColor=none;fontStyle=1" parent="1" vertex="1">
          <mxGeometry x="330" y="180" width="400" height="400" as="geometry" />
        </mxCell>
        <mxCell id="45236fa5f4b8e91a-5" value="WP2" style="ellipse;whiteSpace=wrap;html=1;rounded=0;shadow=0;dashed=0;comic=0;fontFamily=Verdana;fontSize=22;fillColor=#ffe6cc;strokeColor=#d79b00;labelBackgroundColor=none;fontStyle=1" parent="1" vertex="1">
          <mxGeometry x="260" y="170" width="180" height="180" as="geometry" />
        </mxCell>
        <mxCell id="inY06BSzbpK9KpL7BebR-1" value="WP3" style="ellipse;whiteSpace=wrap;html=1;rounded=0;shadow=0;dashed=0;comic=0;fontFamily=Verdana;fontSize=22;fillColor=#fff2cc;strokeColor=#d6b656;labelBackgroundColor=none;fontStyle=1" vertex="1" parent="1">
          <mxGeometry x="260" y="380" width="180" height="180" as="geometry" />
        </mxCell>
        <mxCell id="inY06BSzbpK9KpL7BebR-4" value="WP4" style="ellipse;whiteSpace=wrap;html=1;rounded=0;shadow=0;dashed=0;comic=0;fontFamily=Verdana;fontSize=22;fillColor=#ffda75;strokeColor=#82b366;labelBackgroundColor=none;fontStyle=1" vertex="1" parent="1">
          <mxGeometry x="630" y="180" width="180" height="180" as="geometry" />
        </mxCell>
        <mxCell id="inY06BSzbpK9KpL7BebR-5" value="WP5" style="ellipse;whiteSpace=wrap;html=1;rounded=0;shadow=0;dashed=0;comic=0;fontFamily=Verdana;fontSize=22;fillColor=#f8cecc;strokeColor=#b85450;labelBackgroundColor=none;fontStyle=1" vertex="1" parent="1">
          <mxGeometry x="630" y="400" width="180" height="180" as="geometry" />
        </mxCell>
        <mxCell id="inY06BSzbpK9KpL7BebR-6" value="WP7" style="ellipse;whiteSpace=wrap;html=1;rounded=0;shadow=0;dashed=0;comic=0;fontFamily=Verdana;fontSize=22;fillColor=#f5f5f5;strokeColor=#666666;labelBackgroundColor=none;fontColor=#333333;fontStyle=1" vertex="1" parent="1">
          <mxGeometry x="440" y="480" width="180" height="180" as="geometry" />
        </mxCell>
        <mxCell id="inY06BSzbpK9KpL7BebR-7" value="WP8" style="ellipse;whiteSpace=wrap;html=1;rounded=0;shadow=0;dashed=0;comic=0;fontFamily=Verdana;fontSize=22;fillColor=#e1d5e7;strokeColor=#9673a6;labelBackgroundColor=none;fontStyle=1" vertex="1" parent="1">
          <mxGeometry x="450" y="80" width="180" height="180" as="geometry" />
        </mxCell>
      </root>
    </mxGraphModel>
  </diagram>
</mxfile>
